<svg version="1.1" id="Layer_1" xmlns="http://www.w3.org/2000/svg" xmlns:xlink="http://www.w3.org/1999/xlink" x="0" y="0" viewBox="0 0 100 70" xml:space="preserve" enable-background="new 0 0 100 70"><style type="text/css">.st0{fill:#231f20}</style><path class="st0" d="M63.5,55h-26c-0.8,0-1.5-0.7-1.5-1.5v-32c0-0.8,0.7-1.5,1.5-1.5h12c0.6,0,1.1,0.4,1.4,0.9l14,32 c0.2,0.5,0.2,1-0.1,1.4C64.5,54.7,64,55,63.5,55z M39,52h22.2L48.5,23H39V52z M80.3,52.1c3.8-1.6,7.1-3.1,13.1-0.7 c0.8,0.3,1.6-0.1,1.9-0.9c0.3-0.8-0.1-1.6-0.9-1.9c-7.2-2.8-11.4-1-15.4,0.8c-2.9,1.2-5.6,2.4-9.6,1.9c-0.8-0.1-1.6,0.5-1.7,1.3 c-0.1,0.8,0.5,1.6,1.3,1.7c0.8,0.1,1.6,0.2,2.3,0.2C75.1,54.4,77.8,53.2,80.3,52.1z M80.3,45.1c3.8-1.6,7.1-3.1,13.1-0.7 c0.8,0.3,1.6-0.1,1.9-0.9c0.3-0.8-0.1-1.6-0.9-1.9c-7.2-2.8-11.4-1-15.4,0.8c-2.9,1.2-5.6,2.4-9.6,1.9c-0.8-0.1-1.6,0.5-1.7,1.3 c-0.1,0.8,0.5,1.6,1.3,1.7c0.8,0.1,1.6,0.2,2.3,0.2C75.1,47.4,77.8,46.2,80.3,45.1z M6.5,31.4c6.1-2.3,9.4-0.9,13.1,0.7 c2.5,1.1,5.2,2.3,8.9,2.3c1.1,0,2.2-0.1,3.5-0.4V31c-4.9,1.1-7.9-0.2-11.1-1.6c-4-1.7-8.2-3.6-15.4-0.8c-0.8,0.3-1.2,1.2-0.9,1.9 C4.9,31.3,5.8,31.7,6.5,31.4z M6.5,38.4c6.1-2.3,9.4-0.9,13.1,0.7c2.5,1.1,5.2,2.3,8.9,2.3c1.1,0,2.2-0.1,3.5-0.4V38 c-4.9,1.1-7.9-0.2-11.1-1.6c-4-1.7-8.2-3.6-15.4-0.8c-0.8,0.3-1.2,1.2-0.9,1.9C4.9,38.3,5.8,38.7,6.5,38.4z M6.5,24.4 c6.1-2.3,9.4-0.9,13.1,0.7c2.5,1.1,5.2,2.3,8.9,2.3c1.1,0,2.2-0.1,3.5-0.4V24c-4.9,1.1-7.9-0.2-11.1-1.6c-4-1.7-8.2-3.6-15.4-0.8 c-0.8,0.3-1.2,1.2-0.9,1.9C4.9,24.3,5.8,24.7,6.5,24.4z M6.5,45.4c6.1-2.3,9.4-0.9,13.1,0.7c2.5,1.1,5.2,2.3,8.9,2.3 c1.1,0,2.2-0.1,3.5-0.4V45c-4.9,1.1-7.9-0.2-11.1-1.6c-4-1.7-8.2-3.6-15.4-0.8c-0.8,0.3-1.2,1.2-0.9,1.9C4.9,45.3,5.8,45.7,6.5,45.4 z M32,52c-4.9,1.1-7.9-0.2-11.1-1.6c-4-1.7-8.2-3.6-15.4-0.8c-0.8,0.3-1.2,1.2-0.9,1.9c0.3,0.8,1.2,1.2,1.9,0.9 c6.1-2.3,9.4-0.9,13.1,0.7c2.5,1.1,5.2,2.3,8.9,2.3c1.1,0,2.2-0.1,3.5-0.4V52z"/></svg>